<svg width="32" height="32" viewBox="0 0 32 32" fill="none" xmlns="http://www.w3.org/2000/svg">
<rect width="15.2281" height="4.42105" transform="translate(4.21045 7.21057)" fill="#6BC33F"/>
<path fill-rule="evenodd" clip-rule="evenodd" d="M5.4386 5C3.53951 5 2 6.53951 2 8.4386V23.6667C2 25.5658 3.53951 27.1053 5.4386 27.1053H26.5614C28.4605 27.1053 30 25.5658 30 23.6667V8.4386C30 6.53951 28.4605 5 26.5614 5H5.4386ZM6.42105 7.45619C5.33586 7.45619 4.45614 8.33591 4.45614 9.4211C4.45614 10.5063 5.33586 11.386 6.42105 11.386C7.50625 11.386 8.38596 10.5063 8.38596 9.4211C8.38596 8.33591 7.50625 7.45619 6.42105 7.45619ZM9.85972 9.4211C9.85972 8.33591 10.7395 7.45619 11.8246 7.45619C12.9098 7.45619 13.7895 8.33591 13.7895 9.4211C13.7895 10.5063 12.9098 11.386 11.8246 11.386C10.7395 11.386 9.85972 10.5063 9.85972 9.4211ZM17.2281 7.45619C16.1429 7.45619 15.2632 8.33591 15.2632 9.4211C15.2632 10.5063 16.1429 11.386 17.2281 11.386C18.3132 11.386 19.193 10.5063 19.193 9.4211C19.193 8.33591 18.3132 7.45619 17.2281 7.45619Z" fill="#181D27"/>
</svg>
