<svg width="22" height="18" viewBox="0 0 22 18" fill="none" xmlns="http://www.w3.org/2000/svg">
<path d="M21.8337 6.8335V13.3335C21.8337 14.4828 21.3771 15.585 20.5645 16.3976C19.7518 17.2103 18.6496 17.6668 17.5003 17.6668H4.50033C3.35105 17.6668 2.24885 17.2103 1.4362 16.3976C0.623539 15.585 0.166992 14.4828 0.166992 13.3335V6.8335H21.8337ZM5.59449 11.1668H5.58366C5.44139 11.1675 5.30066 11.1963 5.1695 11.2514C5.03833 11.3065 4.91931 11.3869 4.81921 11.488C4.61706 11.6921 4.50431 11.9683 4.50574 12.2556C4.50645 12.3978 4.53518 12.5386 4.59028 12.6697C4.64538 12.8009 4.72577 12.9199 4.82687 13.02C4.92797 13.1201 5.0478 13.1993 5.17951 13.2531C5.31121 13.3069 5.45223 13.3342 5.59449 13.3335C5.88181 13.3335 6.15736 13.2194 6.36052 13.0162C6.56369 12.813 6.67783 12.5375 6.67783 12.2502C6.67783 11.9628 6.56369 11.6873 6.36052 11.4841C6.15736 11.281 5.88181 11.1668 5.59449 11.1668ZM12.0837 11.1668H9.91699C9.62967 11.1668 9.35412 11.281 9.15096 11.4841C8.94779 11.6873 8.83366 11.9628 8.83366 12.2502C8.83366 12.5375 8.94779 12.813 9.15096 13.0162C9.35412 13.2194 9.62967 13.3335 9.91699 13.3335H12.0837C12.371 13.3335 12.6465 13.2194 12.8497 13.0162C13.0529 12.813 13.167 12.5375 13.167 12.2502C13.167 11.9628 13.0529 11.6873 12.8497 11.4841C12.6465 11.281 12.371 11.1668 12.0837 11.1668ZM17.5003 0.333496C18.6496 0.333496 19.7518 0.790042 20.5645 1.6027C21.3771 2.41536 21.8337 3.51756 21.8337 4.66683H0.166992C0.166992 3.51756 0.623539 2.41536 1.4362 1.6027C2.24885 0.790042 3.35105 0.333496 4.50033 0.333496H17.5003Z" fill="#181D27"/>
</svg>
