<svg width="36" height="36" viewBox="0 0 36 36" fill="none" xmlns="http://www.w3.org/2000/svg">
<path d="M10.5 19.5C11.718 19.5 12.8745 19.854 13.8615 20.457C11.7915 21.465 10.101 23.3055 9.2685 25.5H6C5.5065 25.5 5.046 25.2585 4.7655 24.852C4.485 24.4455 4.422 23.9295 4.5975 23.4675C5.4975 21.0945 7.869 19.4985 10.5 19.4985V19.5ZM18 19.5C20.4855 19.5 22.5 17.4855 22.5 15C22.5 12.5145 20.4855 10.5 18 10.5C15.5145 10.5 13.5 12.5145 13.5 15C13.5 17.4855 15.5145 19.5 18 19.5ZM6.087 11.943C6.087 14.4285 8.1015 16.443 10.587 16.443C10.6065 16.443 10.6245 16.437 10.644 16.437C10.5525 15.9705 10.4985 15.492 10.4985 15C10.4985 12.4215 11.808 10.1445 13.7955 8.793C12.9795 7.9605 11.844 7.4415 10.587 7.4415C8.1015 7.4415 6.087 9.4575 6.087 11.943ZM22.1385 20.4585C24.2085 21.4665 25.899 23.307 26.7315 25.5015H30C30.4935 25.5015 30.954 25.26 31.2345 24.8535C31.515 24.447 31.578 23.931 31.4025 23.469C30.5025 21.096 28.131 19.5 25.5 19.5C24.282 19.5 23.1255 19.854 22.1385 20.457V20.4585ZM25.5 7.5015C24.2385 7.5015 23.1015 8.025 22.284 8.8605C24.2235 10.218 25.5 12.459 25.5 15.0015C25.5 15.51 25.4475 16.0065 25.35 16.4865C25.401 16.488 25.449 16.5015 25.5 16.5015C27.9855 16.5015 30 14.487 30 12.0015C30 9.516 27.9855 7.5015 25.5 7.5015ZM34.5 24.0015C33.672 24.0015 33 24.672 33 25.5015V28.5015C33 30.9825 30.981 33.0015 28.5 33.0015H25.5C24.672 33.0015 24 33.672 24 34.5015C24 35.331 24.672 36.0015 25.5 36.0015H28.5C32.6355 36.0015 36 32.637 36 28.5015V25.5015C36 24.672 35.328 24.0015 34.5 24.0015ZM28.5 0H25.5C24.672 0 24 0.6705 24 1.5C24 2.3295 24.672 3 25.5 3H28.5C30.981 3 33 5.019 33 7.5V10.5C33 11.3295 33.672 12 34.5 12C35.328 12 36 11.3295 36 10.5V7.5C36 3.3645 32.6355 0 28.5 0ZM10.5 33H7.5C5.019 33 3 30.981 3 28.5V25.5C3 24.6705 2.328 24 1.5 24C0.672 24 0 24.6705 0 25.5V28.5C0 32.6355 3.3645 36 7.5 36H10.5C11.328 36 12 35.3295 12 34.5C12 33.6705 11.328 33 10.5 33ZM18 22.5C15.369 22.5 12.9975 24.0945 12.0975 26.469C11.922 26.931 11.985 27.447 12.2655 27.8535C12.546 28.26 13.0065 28.5015 13.5 28.5015H22.5C22.9935 28.5015 23.454 28.26 23.7345 27.8535C24.015 27.447 24.078 26.931 23.9025 26.469C23.0025 24.096 20.631 22.5 18 22.5ZM1.5 12C2.328 12 3 11.3295 3 10.5V7.5C3 5.019 5.019 3 7.5 3H10.5C11.328 3 12 2.3295 12 1.5C12 0.6705 11.328 0 10.5 0H7.5C3.3645 0 0 3.3645 0 7.5V10.5C0 11.3295 0.672 12 1.5 12Z" fill="#6BC33F"/>
</svg>
