<svg width="26" height="26" viewBox="0 0 26 26" fill="none" xmlns="http://www.w3.org/2000/svg">
<g clip-path="url(#clip0_2237_1451)">
<path d="M16.2508 7.58368H9.75083C9.1762 7.58368 8.6251 7.81195 8.21877 8.21828C7.81244 8.62461 7.58417 9.17571 7.58417 9.75035V16.2503C7.58417 16.825 7.81244 17.3761 8.21877 17.7824C8.6251 18.1887 9.1762 18.417 9.75083 18.417H16.2508C16.8255 18.417 17.3766 18.1887 17.7829 17.7824C18.1892 17.3761 18.4175 16.825 18.4175 16.2503V9.75035C18.4175 9.17571 18.1892 8.62461 17.7829 8.21828C17.3766 7.81195 16.8255 7.58368 16.2508 7.58368Z" fill="#181D27"/>
<path d="M4.33362 7.58368C4.60974 7.58399 4.87532 7.68971 5.0761 7.87926C5.27688 8.06881 5.39771 8.32788 5.41389 8.60352C5.43007 8.87917 5.34039 9.15059 5.16316 9.36233C4.98594 9.57407 4.73456 9.71015 4.46037 9.74276L4.33362 9.75035H3.25028C2.97417 9.75004 2.70858 9.64431 2.5078 9.45476C2.30702 9.26521 2.1862 9.00615 2.17002 8.7305C2.15383 8.45486 2.24352 8.18344 2.42074 7.97169C2.59796 7.75995 2.84935 7.62387 3.12353 7.59126L3.25028 7.58368H4.33362Z" fill="#181D27"/>
<path d="M4.33362 16.2502C4.60974 16.2505 4.87532 16.3562 5.0761 16.5458C5.27688 16.7353 5.39771 16.9944 5.41389 17.27C5.43007 17.5457 5.34039 17.8171 5.16316 18.0288C4.98594 18.2406 4.73456 18.3767 4.46037 18.4093L4.33362 18.4168H3.25028C2.97417 18.4165 2.70858 18.3108 2.5078 18.1213C2.30702 17.9317 2.1862 17.6727 2.17002 17.397C2.15383 17.1214 2.24352 16.8499 2.42074 16.6382C2.59796 16.4265 2.84935 16.2904 3.12353 16.2578L3.25028 16.2502H4.33362Z" fill="#181D27"/>
<path d="M8.6675 2.16669C8.93285 2.16672 9.18895 2.26414 9.38724 2.44046C9.58553 2.61678 9.71221 2.85975 9.74325 3.12327L9.75083 3.25002V4.33335C9.75053 4.60947 9.6448 4.87506 9.45525 5.07584C9.2657 5.27662 9.00664 5.39744 8.73099 5.41362C8.45534 5.4298 8.18392 5.34012 7.97218 5.1629C7.76044 4.98568 7.62436 4.73429 7.59175 4.4601L7.58417 4.33335V3.25002C7.58417 2.9627 7.6983 2.68715 7.90147 2.48399C8.10463 2.28082 8.38018 2.16669 8.6675 2.16669Z" fill="#181D27"/>
<path d="M17.3335 2.16632C17.5989 2.16636 17.855 2.26377 18.0533 2.4401C18.2515 2.61642 18.3782 2.85938 18.4093 3.1229L18.4168 3.24965V4.33299C18.4165 4.60911 18.3108 4.87469 18.1213 5.07547C17.9317 5.27625 17.6727 5.39707 17.397 5.41326C17.1214 5.42944 16.8499 5.33976 16.6382 5.16253C16.4265 4.98531 16.2904 4.73392 16.2578 4.45974L16.2502 4.33299V3.24965C16.2502 2.96234 16.3643 2.68679 16.5675 2.48362C16.7706 2.28046 17.0462 2.16632 17.3335 2.16632Z" fill="#181D27"/>
<path d="M22.7496 7.58368C23.0258 7.58399 23.2913 7.68971 23.4921 7.87926C23.6929 8.06881 23.8137 8.32788 23.8299 8.60352C23.8461 8.87917 23.7564 9.15059 23.5792 9.36233C23.402 9.57407 23.1506 9.71015 22.8764 9.74276L22.7496 9.75035H21.6663C21.3902 9.75004 21.1246 9.64431 20.9238 9.45476C20.723 9.26521 20.6022 9.00615 20.586 8.7305C20.5698 8.45486 20.6595 8.18344 20.8368 7.97169C21.014 7.75995 21.2654 7.62387 21.5395 7.59126L21.6663 7.58368H22.7496Z" fill="#181D27"/>
<path d="M22.7496 16.2502C23.0258 16.2505 23.2913 16.3562 23.4921 16.5458C23.6929 16.7353 23.8137 16.9944 23.8299 17.27C23.8461 17.5457 23.7564 17.8171 23.5792 18.0288C23.402 18.2406 23.1506 18.3767 22.8764 18.4093L22.7496 18.4168H21.6663C21.3902 18.4165 21.1246 18.3108 20.9238 18.1213C20.723 17.9317 20.6022 17.6727 20.586 17.397C20.5698 17.1214 20.6595 16.8499 20.8368 16.6382C21.014 16.4265 21.2654 16.2904 21.5395 16.2578L21.6663 16.2502H22.7496Z" fill="#181D27"/>
<path d="M8.6675 20.5837C8.93285 20.5837 9.18895 20.6811 9.38724 20.8575C9.58553 21.0338 9.71221 21.2767 9.74325 21.5403L9.75083 21.667V22.7503C9.75053 23.0265 9.6448 23.292 9.45525 23.4928C9.2657 23.6936 9.00664 23.8144 8.73099 23.8306C8.45534 23.8468 8.18392 23.7571 7.97218 23.5799C7.76044 23.4027 7.62436 23.1513 7.59175 22.8771L7.58417 22.7503V21.667C7.58417 21.3797 7.6983 21.1041 7.90147 20.901C8.10463 20.6978 8.38018 20.5837 8.6675 20.5837Z" fill="#181D27"/>
<path d="M17.3335 20.5834C17.5989 20.5835 17.855 20.6809 18.0533 20.8572C18.2515 21.0335 18.3782 21.2765 18.4093 21.54L18.4168 21.6668V22.7501C18.4165 23.0262 18.3108 23.2918 18.1213 23.4926C17.9317 23.6934 17.6727 23.8142 17.397 23.8304C17.1214 23.8466 16.8499 23.7569 16.6382 23.5796C16.4265 23.4024 16.2904 23.151 16.2578 22.8769L16.2502 22.7501V21.6668C16.2502 21.3795 16.3643 21.1039 16.5675 20.9007C16.7706 20.6976 17.0462 20.5834 17.3335 20.5834Z" fill="#181D27"/>
</g>
<defs>
<clipPath id="clip0_2237_1451">
<rect width="26" height="26" fill="white"/>
</clipPath>
</defs>
</svg>
