<svg width="36" height="36" viewBox="0 0 36 36" fill="none" xmlns="http://www.w3.org/2000/svg">
<g clip-path="url(#clip0_128_8108)">
<path d="M4.12665 22.5H0.000148438V21C-0.022559 18.8968 0.534439 16.828 1.61004 15.0205C2.68564 13.213 4.23829 11.7367 6.09765 10.7535C7.92935 9.85036 9.91311 9.29592 11.9476 9.1185C11.0586 10.2185 10.1671 11.3875 9.27315 12.6255C7.25957 15.7529 5.53686 19.0582 4.12665 22.5ZM23.3746 26.7195C20.2476 28.7357 16.9422 30.4609 13.5001 31.8735V36H15.0001C17.1033 36.0227 19.1722 35.4657 20.9796 34.3901C22.7871 33.3145 24.2634 31.7619 25.2466 29.9025C26.1498 28.0708 26.7042 26.087 26.8816 24.0525C25.7866 24.9375 24.6176 25.8265 23.3746 26.7195ZM36.0001 4.4865C35.8006 11.016 31.0996 17.4915 21.6271 24.2865C19.0494 25.9575 16.33 27.3991 13.5001 28.5945V27.75C13.4934 26.3597 12.9382 25.0282 11.9551 24.0451C10.9719 23.062 9.64047 22.5067 8.25015 22.5H7.40565C8.6025 19.6702 10.0461 16.9512 11.7196 14.3745C18.4981 4.917 24.9631 0.216 31.4821 0C34.7311 0 36.0001 1.3275 36.0001 4.4865ZM27.0001 12.75C27.0001 11.7554 26.6051 10.8016 25.9018 10.0983C25.1985 9.39509 24.2447 9 23.2501 9C22.2556 9 21.3018 9.39509 20.5985 10.0983C19.8952 10.8016 19.5001 11.7554 19.5001 12.75C19.5001 13.7446 19.8952 14.6984 20.5985 15.4017C21.3018 16.1049 22.2556 16.5 23.2501 16.5C24.2447 16.5 25.1985 16.1049 25.9018 15.4017C26.6051 14.6984 27.0001 13.7446 27.0001 12.75ZM2.06115 35.6775C3.75015 35.3775 7.82265 34.5405 9.18315 33.1815C9.60105 32.7636 9.93254 32.2675 10.1587 31.7215C10.3849 31.1755 10.5013 30.5902 10.5013 29.9993C10.5013 29.4083 10.3849 28.823 10.1587 28.277C9.93254 27.731 9.60105 27.2349 9.18315 26.817C8.76525 26.3991 8.26913 26.0676 7.72312 25.8414C7.17711 25.6153 6.5919 25.4989 6.0009 25.4989C4.80732 25.4989 3.66263 25.973 2.81865 26.817C1.45965 28.1775 0.621148 32.25 0.322648 33.939L-0.0478516 36.048L2.06115 35.6775Z" fill="#6BC33F"/>
</g>
<defs>
<clipPath id="clip0_128_8108">
<rect width="36" height="36" fill="white"/>
</clipPath>
</defs>
</svg>
